<?xml version="1.0" standalone="no"?>
<!DOCTYPE svg PUBLIC "-//W3C//DTD SVG 20010904//EN"
 "http://www.w3.org/TR/2001/REC-SVG-20010904/DTD/svg10.dtd">
<svg version="1.0" xmlns="http://www.w3.org/2000/svg"
width="500px" height="640px"
 viewBox="0 0 1010.000000 1280.000000"
 preserveAspectRatio="xMidYMid meet">
<g transform="translate(0.000000,1280.000000) scale(0.100000,-0.100000)"
fill="#000000" stroke="none">
<path d="M658 12788 c-36 -13 -35 -21 2 -35 l30 -11 0 -129 c0 -87 -4 -133
-12 -141 -9 -9 -99 -12 -345 -12 l-333 0 0 -429 0 -428 73 -6 c123 -9 204 -58
264 -158 58 -97 63 -137 63 -504 0 -186 -5 -349 -11 -374 -26 -112 -103 -215
-193 -257 -39 -18 -68 -24 -123 -24 l-73 0 0 -1245 0 -1245 63 0 c35 0 84 -7
110 -16 93 -31 181 -139 213 -258 22 -80 20 -703 -2 -777 -51 -170 -151 -258
-306 -267 l-78 -5 0 -523 c0 -495 1 -529 20 -600 39 -145 113 -249 213 -299
l51 -25 1140 0 c628 0 1151 -3 1162 -6 20 -5 22 -13 26 -147 3 -98 10 -153 20
-178 24 -55 87 -119 143 -145 48 -23 58 -24 320 -24 197 0 274 -3 283 -12 9
-9 12 -79 12 -255 l0 -243 54 0 c30 0 58 -4 61 -10 3 -5 -37 -137 -90 -292
-53 -156 -267 -782 -475 -1393 -208 -610 -460 -1350 -560 -1644 -100 -293
-178 -536 -173 -541 18 -16 134 -73 139 -68 3 3 354 876 781 1939 426 1064
777 1936 779 1938 18 18 24 -70 33 -474 12 -497 21 -877 61 -2550 5 -226 13
-524 16 -663 l7 -252 82 0 83 0 6 207 c3 115 11 382 16 595 6 214 14 560 20
770 13 490 28 1080 40 1568 16 630 22 780 31 780 4 0 14 -10 20 -22 7 -13 356
-880 775 -1927 420 -1047 766 -1907 769 -1909 7 -7 135 60 141 73 2 6 -85 273
-195 595 -946 2776 -1110 3263 -1105 3271 3 5 23 9 45 9 l39 0 0 249 c0 218 2
250 16 255 9 3 120 6 248 6 230 0 233 0 284 26 29 14 67 44 86 66 53 62 66
112 66 259 0 117 2 129 19 139 13 7 421 10 1248 10 l1228 0 52 24 c97 45 177
149 209 271 11 40 14 244 14 1035 l0 984 95 287 95 286 0 211 0 212 63 0 c90
0 111 14 115 75 2 27 8 55 14 62 15 18 1018 19 1036 1 8 -8 12 -50 12 -124 0
-89 3 -116 16 -128 23 -23 339 -23 372 0 l22 15 0 1048 0 1048 -23 21 c-22 21
-33 22 -189 22 -207 0 -196 8 -200 -155 l-3 -120 -532 -3 -533 -2 0 112 c0
153 -5 162 -95 168 l-70 5 -5 150 -5 150 -92 278 -93 277 0 218 c0 156 3 221
12 230 13 13 105 17 133 6 9 -4 23 -24 32 -45 19 -49 45 -51 64 -6 21 49 19
196 -4 231 -23 35 -37 30 -62 -22 l-20 -43 -75 3 -75 3 -3 328 -2 327 -425 0
-425 0 0 -814 c0 -448 -3 -821 -6 -830 -3 -9 -10 -16 -14 -16 -5 0 -47 56 -95
125 -47 69 -90 123 -95 120 -5 -3 -105 -89 -222 -190 -117 -102 -219 -184
-227 -183 -8 2 -90 113 -183 248 -92 135 -172 245 -178 245 -5 0 -106 -84
-224 -187 -118 -104 -221 -188 -228 -188 -7 0 -89 113 -183 250 -103 151 -175
248 -183 245 -7 -2 -107 -87 -222 -187 -116 -101 -217 -183 -225 -183 -8 0
-90 110 -182 244 -93 134 -173 246 -178 248 -6 2 -109 -82 -229 -187 -121
-104 -223 -190 -227 -190 -5 0 -85 113 -179 250 -94 138 -175 250 -180 250 -5
0 -96 -75 -202 -168 -224 -194 -248 -213 -258 -207 -4 2 -85 117 -180 255
-156 227 -174 250 -189 237 -324 -283 -426 -367 -439 -365 -9 2 -89 111 -179
243 -90 132 -168 244 -172 248 -5 5 -107 -77 -227 -182 -121 -105 -226 -190
-234 -188 -8 1 -91 112 -183 247 -92 135 -172 245 -176 245 -5 0 -104 -82
-221 -183 -116 -101 -218 -186 -226 -189 -17 -6 -16 -8 -126 156 l-78 114 0
333 0 333 -37 3 -38 3 -3 142 -3 141 31 7 c40 9 38 19 -9 33 -46 14 -106 14
-143 0z m6185 -5030 c46 -40 145 -126 219 -190 75 -65 139 -118 144 -118 5 0
43 51 84 112 91 134 100 144 111 126 5 -7 9 -155 9 -329 l0 -315 -28 -45 c-70
-108 -1065 -1535 -1080 -1546 -12 -10 -117 -13 -446 -13 -237 0 -436 4 -442 8
-6 4 -32 51 -58 104 -186 381 -552 653 -973 723 -85 14 -149 16 -380 12 -295
-5 -335 -10 -504 -68 -328 -112 -625 -383 -767 -701 -17 -36 -37 -68 -47 -72
-9 -3 -418 -6 -910 -6 -746 0 -894 2 -904 14 -8 10 -11 180 -9 637 l3 624 89
128 c53 76 95 127 105 127 9 0 112 -84 230 -186 117 -102 218 -183 224 -181 7
2 87 113 178 247 92 134 171 246 176 247 6 2 109 -82 229 -186 121 -105 224
-189 229 -188 6 2 85 113 177 248 96 140 173 244 182 244 8 0 112 -84 230
-187 119 -104 219 -188 223 -188 4 0 67 87 138 192 164 241 212 308 225 308 5
0 107 -85 227 -190 120 -104 220 -190 224 -190 3 0 81 112 175 250 93 138 176
249 184 250 8 0 114 -86 234 -191 120 -104 222 -186 226 -182 4 4 82 117 174
251 92 133 173 242 181 242 8 0 112 -85 232 -189 128 -112 222 -186 227 -181
5 5 84 118 175 251 92 134 171 244 177 246 5 1 107 -83 228 -188 120 -104 223
-188 229 -186 6 2 87 114 180 250 93 136 173 247 178 247 5 0 46 -33 92 -72z
m561 -1474 c3 -9 6 -195 6 -414 0 -349 -2 -401 -16 -414 -13 -14 -54 -16 -292
-16 -154 0 -284 4 -292 10 -12 8 -12 13 6 37 11 15 143 205 293 421 150 215
276 392 281 392 4 0 11 -7 14 -16z"/>
</g>
</svg>

