<svg width="290" height="290" xmlns="http://www.w3.org/2000/svg" xlink="http://www.w3.org/1999/xlink"><rect width="100%" height="100%" fill="#ffffff"/><g fill="#000000"><rect width="10" y="280" x="0" height="10"/><rect width="10" y="270" x="0" height="10"/><rect width="10" y="260" x="0" height="10"/><rect width="10" y="250" x="0" height="10"/><rect width="10" y="240" x="0" height="10"/><rect width="10" y="230" x="0" height="10"/><rect width="10" y="220" x="0" height="10"/><rect width="10" y="200" x="0" height="10"/><rect width="10" y="190" x="0" height="10"/><rect width="10" y="170" x="0" height="10"/><rect width="10" y="150" x="0" height="10"/><rect width="10" y="140" x="0" height="10"/><rect width="10" y="120" x="0" height="10"/><rect width="10" y="90" x="0" height="10"/><rect width="10" y="60" x="0" height="10"/><rect width="10" y="50" x="0" height="10"/><rect width="10" y="40" x="0" height="10"/><rect width="10" y="30" x="0" height="10"/><rect width="10" y="20" x="0" height="10"/><rect width="10" y="10" x="0" height="10"/><rect width="10" y="0" x="0" height="10"/><rect width="10" y="280" x="10" height="10"/><rect width="10" y="220" x="10" height="10"/><rect width="10" y="180" x="10" height="10"/><rect width="10" y="170" x="10" height="10"/><rect width="10" y="150" x="10" height="10"/><rect width="10" y="130" x="10" height="10"/><rect width="10" y="120" x="10" height="10"/><rect width="10" y="110" x="10" height="10"/><rect width="10" y="100" x="10" height="10"/><rect width="10" y="90" x="10" height="10"/><rect width="10" y="60" x="10" height="10"/><rect width="10" y="0" x="10" height="10"/><rect width="10" y="280" x="20" height="10"/><rect width="10" y="260" x="20" height="10"/><rect width="10" y="250" x="20" height="10"/><rect width="10" y="240" x="20" height="10"/><rect width="10" y="220" x="20" height="10"/><rect width="10" y="200" x="20" height="10"/><rect width="10" y="190" x="20" height="10"/><rect width="10" y="180" x="20" height="10"/><rect width="10" y="160" x="20" height="10"/><rect width="10" y="150" x="20" height="10"/><rect width="10" y="120" x="20" height="10"/><rect width="10" y="110" x="20" height="10"/><rect width="10" y="90" x="20" height="10"/><rect width="10" y="60" x="20" height="10"/><rect width="10" y="40" x="20" height="10"/><rect width="10" y="30" x="20" height="10"/><rect width="10" y="20" x="20" height="10"/><rect width="10" y="0" x="20" height="10"/><rect width="10" y="280" x="30" height="10"/><rect width="10" y="260" x="30" height="10"/><rect width="10" y="250" x="30" height="10"/><rect width="10" y="240" x="30" height="10"/><rect width="10" y="220" x="30" height="10"/><rect width="10" y="170" x="30" height="10"/><rect width="10" y="150" x="30" height="10"/><rect width="10" y="130" x="30" height="10"/><rect width="10" y="120" x="30" height="10"/><rect width="10" y="90" x="30" height="10"/><rect width="10" y="60" x="30" height="10"/><rect width="10" y="40" x="30" height="10"/><rect width="10" y="30" x="30" height="10"/><rect width="10" y="20" x="30" height="10"/><rect width="10" y="0" x="30" height="10"/><rect width="10" y="280" x="40" height="10"/><rect width="10" y="260" x="40" height="10"/><rect width="10" y="250" x="40" height="10"/><rect width="10" y="240" x="40" height="10"/><rect width="10" y="220" x="40" height="10"/><rect width="10" y="200" x="40" height="10"/><rect width="10" y="190" x="40" height="10"/><rect width="10" y="170" x="40" height="10"/><rect width="10" y="160" x="40" height="10"/><rect width="10" y="150" x="40" height="10"/><rect width="10" y="120" x="40" height="10"/><rect width="10" y="90" x="40" height="10"/><rect width="10" y="80" x="40" height="10"/><rect width="10" y="60" x="40" height="10"/><rect width="10" y="40" x="40" height="10"/><rect width="10" y="30" x="40" height="10"/><rect width="10" y="20" x="40" height="10"/><rect width="10" y="0" x="40" height="10"/><rect width="10" y="280" x="50" height="10"/><rect width="10" y="220" x="50" height="10"/><rect width="10" y="190" x="50" height="10"/><rect width="10" y="180" x="50" height="10"/><rect width="10" y="170" x="50" height="10"/><rect width="10" y="160" x="50" height="10"/><rect width="10" y="150" x="50" height="10"/><rect width="10" y="140" x="50" height="10"/><rect width="10" y="120" x="50" height="10"/><rect width="10" y="100" x="50" height="10"/><rect width="10" y="90" x="50" height="10"/><rect width="10" y="60" x="50" height="10"/><rect width="10" y="0" x="50" height="10"/><rect width="10" y="280" x="60" height="10"/><rect width="10" y="270" x="60" height="10"/><rect width="10" y="260" x="60" height="10"/><rect width="10" y="250" x="60" height="10"/><rect width="10" y="240" x="60" height="10"/><rect width="10" y="230" x="60" height="10"/><rect width="10" y="220" x="60" height="10"/><rect width="10" y="200" x="60" height="10"/><rect width="10" y="180" x="60" height="10"/><rect width="10" y="160" x="60" height="10"/><rect width="10" y="140" x="60" height="10"/><rect width="10" y="120" x="60" height="10"/><rect width="10" y="100" x="60" height="10"/><rect width="10" y="60" x="60" height="10"/><rect width="10" y="50" x="60" height="10"/><rect width="10" y="40" x="60" height="10"/><rect width="10" y="30" x="60" height="10"/><rect width="10" y="20" x="60" height="10"/><rect width="10" y="10" x="60" height="10"/><rect width="10" y="0" x="60" height="10"/><rect width="10" y="200" x="70" height="10"/><rect width="10" y="170" x="70" height="10"/><rect width="10" y="150" x="70" height="10"/><rect width="10" y="140" x="70" height="10"/><rect width="10" y="130" x="70" height="10"/><rect width="10" y="120" x="70" height="10"/><rect width="10" y="110" x="70" height="10"/><rect width="10" y="90" x="70" height="10"/><rect width="10" y="80" x="70" height="10"/><rect width="10" y="240" x="80" height="10"/><rect width="10" y="220" x="80" height="10"/><rect width="10" y="210" x="80" height="10"/><rect width="10" y="190" x="80" height="10"/><rect width="10" y="140" x="80" height="10"/><rect width="10" y="100" x="80" height="10"/><rect width="10" y="90" x="80" height="10"/><rect width="10" y="80" x="80" height="10"/><rect width="10" y="70" x="80" height="10"/><rect width="10" y="30" x="80" height="10"/><rect width="10" y="20" x="80" height="10"/><rect width="10" y="280" x="90" height="10"/><rect width="10" y="240" x="90" height="10"/><rect width="10" y="230" x="90" height="10"/><rect width="10" y="220" x="90" height="10"/><rect width="10" y="210" x="90" height="10"/><rect width="10" y="200" x="90" height="10"/><rect width="10" y="190" x="90" height="10"/><rect width="10" y="180" x="90" height="10"/><rect width="10" y="140" x="90" height="10"/><rect width="10" y="110" x="90" height="10"/><rect width="10" y="70" x="90" height="10"/><rect width="10" y="50" x="90" height="10"/><rect width="10" y="40" x="90" height="10"/><rect width="10" y="20" x="90" height="10"/><rect width="10" y="10" x="90" height="10"/><rect width="10" y="270" x="100" height="10"/><rect width="10" y="260" x="100" height="10"/><rect width="10" y="250" x="100" height="10"/><rect width="10" y="240" x="100" height="10"/><rect width="10" y="230" x="100" height="10"/><rect width="10" y="220" x="100" height="10"/><rect width="10" y="200" x="100" height="10"/><rect width="10" y="160" x="100" height="10"/><rect width="10" y="150" x="100" height="10"/><rect width="10" y="110" x="100" height="10"/><rect width="10" y="100" x="100" height="10"/><rect width="10" y="80" x="100" height="10"/><rect width="10" y="60" x="100" height="10"/><rect width="10" y="30" x="100" height="10"/><rect width="10" y="0" x="100" height="10"/><rect width="10" y="280" x="110" height="10"/><rect width="10" y="230" x="110" height="10"/><rect width="10" y="200" x="110" height="10"/><rect width="10" y="190" x="110" height="10"/><rect width="10" y="170" x="110" height="10"/><rect width="10" y="160" x="110" height="10"/><rect width="10" y="120" x="110" height="10"/><rect width="10" y="110" x="110" height="10"/><rect width="10" y="90" x="110" height="10"/><rect width="10" y="50" x="110" height="10"/><rect width="10" y="30" x="110" height="10"/><rect width="10" y="280" x="120" height="10"/><rect width="10" y="270" x="120" height="10"/><rect width="10" y="260" x="120" height="10"/><rect width="10" y="230" x="120" height="10"/><rect width="10" y="210" x="120" height="10"/><rect width="10" y="200" x="120" height="10"/><rect width="10" y="170" x="120" height="10"/><rect width="10" y="150" x="120" height="10"/><rect width="10" y="130" x="120" height="10"/><rect width="10" y="120" x="120" height="10"/><rect width="10" y="90" x="120" height="10"/><rect width="10" y="60" x="120" height="10"/><rect width="10" y="50" x="120" height="10"/><rect width="10" y="40" x="120" height="10"/><rect width="10" y="20" x="120" height="10"/><rect width="10" y="10" x="120" height="10"/><rect width="10" y="0" x="120" height="10"/><rect width="10" y="280" x="130" height="10"/><rect width="10" y="260" x="130" height="10"/><rect width="10" y="250" x="130" height="10"/><rect width="10" y="230" x="130" height="10"/><rect width="10" y="220" x="130" height="10"/><rect width="10" y="190" x="130" height="10"/><rect width="10" y="170" x="130" height="10"/><rect width="10" y="160" x="130" height="10"/><rect width="10" y="150" x="130" height="10"/><rect width="10" y="130" x="130" height="10"/><rect width="10" y="120" x="130" height="10"/><rect width="10" y="110" x="130" height="10"/><rect width="10" y="100" x="130" height="10"/><rect width="10" y="90" x="130" height="10"/><rect width="10" y="80" x="130" height="10"/><rect width="10" y="50" x="130" height="10"/><rect width="10" y="20" x="130" height="10"/><rect width="10" y="280" x="140" height="10"/><rect width="10" y="270" x="140" height="10"/><rect width="10" y="250" x="140" height="10"/><rect width="10" y="240" x="140" height="10"/><rect width="10" y="230" x="140" height="10"/><rect width="10" y="210" x="140" height="10"/><rect width="10" y="200" x="140" height="10"/><rect width="10" y="190" x="140" height="10"/><rect width="10" y="180" x="140" height="10"/><rect width="10" y="160" x="140" height="10"/><rect width="10" y="120" x="140" height="10"/><rect width="10" y="100" x="140" height="10"/><rect width="10" y="90" x="140" height="10"/><rect width="10" y="70" x="140" height="10"/><rect width="10" y="60" x="140" height="10"/><rect width="10" y="50" x="140" height="10"/><rect width="10" y="30" x="140" height="10"/><rect width="10" y="10" x="140" height="10"/><rect width="10" y="250" x="150" height="10"/><rect width="10" y="240" x="150" height="10"/><rect width="10" y="210" x="150" height="10"/><rect width="10" y="200" x="150" height="10"/><rect width="10" y="170" x="150" height="10"/><rect width="10" y="150" x="150" height="10"/><rect width="10" y="130" x="150" height="10"/><rect width="10" y="110" x="150" height="10"/><rect width="10" y="100" x="150" height="10"/><rect width="10" y="90" x="150" height="10"/><rect width="10" y="40" x="150" height="10"/><rect width="10" y="20" x="150" height="10"/><rect width="10" y="10" x="150" height="10"/><rect width="10" y="280" x="160" height="10"/><rect width="10" y="270" x="160" height="10"/><rect width="10" y="250" x="160" height="10"/><rect width="10" y="240" x="160" height="10"/><rect width="10" y="230" x="160" height="10"/><rect width="10" y="210" x="160" height="10"/><rect width="10" y="200" x="160" height="10"/><rect width="10" y="180" x="160" height="10"/><rect width="10" y="160" x="160" height="10"/><rect width="10" y="130" x="160" height="10"/><rect width="10" y="90" x="160" height="10"/><rect width="10" y="70" x="160" height="10"/><rect width="10" y="60" x="160" height="10"/><rect width="10" y="50" x="160" height="10"/><rect width="10" y="40" x="160" height="10"/><rect width="10" y="20" x="160" height="10"/><rect width="10" y="0" x="160" height="10"/><rect width="10" y="230" x="170" height="10"/><rect width="10" y="210" x="170" height="10"/><rect width="10" y="200" x="170" height="10"/><rect width="10" y="170" x="170" height="10"/><rect width="10" y="140" x="170" height="10"/><rect width="10" y="120" x="170" height="10"/><rect width="10" y="80" x="170" height="10"/><rect width="10" y="50" x="170" height="10"/><rect width="10" y="40" x="170" height="10"/><rect width="10" y="30" x="170" height="10"/><rect width="10" y="10" x="170" height="10"/><rect width="10" y="260" x="180" height="10"/><rect width="10" y="250" x="180" height="10"/><rect width="10" y="220" x="180" height="10"/><rect width="10" y="160" x="180" height="10"/><rect width="10" y="140" x="180" height="10"/><rect width="10" y="130" x="180" height="10"/><rect width="10" y="100" x="180" height="10"/><rect width="10" y="90" x="180" height="10"/><rect width="10" y="70" x="180" height="10"/><rect width="10" y="60" x="180" height="10"/><rect width="10" y="40" x="180" height="10"/><rect width="10" y="0" x="180" height="10"/><rect width="10" y="260" x="190" height="10"/><rect width="10" y="250" x="190" height="10"/><rect width="10" y="240" x="190" height="10"/><rect width="10" y="220" x="190" height="10"/><rect width="10" y="210" x="190" height="10"/><rect width="10" y="190" x="190" height="10"/><rect width="10" y="180" x="190" height="10"/><rect width="10" y="150" x="190" height="10"/><rect width="10" y="140" x="190" height="10"/><rect width="10" y="120" x="190" height="10"/><rect width="10" y="110" x="190" height="10"/><rect width="10" y="90" x="190" height="10"/><rect width="10" y="80" x="190" height="10"/><rect width="10" y="20" x="190" height="10"/><rect width="10" y="260" x="200" height="10"/><rect width="10" y="250" x="200" height="10"/><rect width="10" y="240" x="200" height="10"/><rect width="10" y="230" x="200" height="10"/><rect width="10" y="220" x="200" height="10"/><rect width="10" y="210" x="200" height="10"/><rect width="10" y="200" x="200" height="10"/><rect width="10" y="180" x="200" height="10"/><rect width="10" y="170" x="200" height="10"/><rect width="10" y="150" x="200" height="10"/><rect width="10" y="140" x="200" height="10"/><rect width="10" y="130" x="200" height="10"/><rect width="10" y="60" x="200" height="10"/><rect width="10" y="50" x="200" height="10"/><rect width="10" y="30" x="200" height="10"/><rect width="10" y="20" x="200" height="10"/><rect width="10" y="10" x="200" height="10"/><rect width="10" y="280" x="210" height="10"/><rect width="10" y="270" x="210" height="10"/><rect width="10" y="250" x="210" height="10"/><rect width="10" y="240" x="210" height="10"/><rect width="10" y="200" x="210" height="10"/><rect width="10" y="190" x="210" height="10"/><rect width="10" y="160" x="210" height="10"/><rect width="10" y="120" x="210" height="10"/><rect width="10" y="80" x="210" height="10"/><rect width="10" y="270" x="220" height="10"/><rect width="10" y="260" x="220" height="10"/><rect width="10" y="240" x="220" height="10"/><rect width="10" y="220" x="220" height="10"/><rect width="10" y="200" x="220" height="10"/><rect width="10" y="190" x="220" height="10"/><rect width="10" y="170" x="220" height="10"/><rect width="10" y="150" x="220" height="10"/><rect width="10" y="130" x="220" height="10"/><rect width="10" y="120" x="220" height="10"/><rect width="10" y="80" x="220" height="10"/><rect width="10" y="60" x="220" height="10"/><rect width="10" y="50" x="220" height="10"/><rect width="10" y="40" x="220" height="10"/><rect width="10" y="30" x="220" height="10"/><rect width="10" y="20" x="220" height="10"/><rect width="10" y="10" x="220" height="10"/><rect width="10" y="0" x="220" height="10"/><rect width="10" y="280" x="230" height="10"/><rect width="10" y="270" x="230" height="10"/><rect width="10" y="240" x="230" height="10"/><rect width="10" y="200" x="230" height="10"/><rect width="10" y="170" x="230" height="10"/><rect width="10" y="160" x="230" height="10"/><rect width="10" y="150" x="230" height="10"/><rect width="10" y="140" x="230" height="10"/><rect width="10" y="120" x="230" height="10"/><rect width="10" y="60" x="230" height="10"/><rect width="10" y="0" x="230" height="10"/><rect width="10" y="280" x="240" height="10"/><rect width="10" y="270" x="240" height="10"/><rect width="10" y="260" x="240" height="10"/><rect width="10" y="250" x="240" height="10"/><rect width="10" y="240" x="240" height="10"/><rect width="10" y="230" x="240" height="10"/><rect width="10" y="220" x="240" height="10"/><rect width="10" y="210" x="240" height="10"/><rect width="10" y="200" x="240" height="10"/><rect width="10" y="160" x="240" height="10"/><rect width="10" y="130" x="240" height="10"/><rect width="10" y="120" x="240" height="10"/><rect width="10" y="110" x="240" height="10"/><rect width="10" y="100" x="240" height="10"/><rect width="10" y="90" x="240" height="10"/><rect width="10" y="60" x="240" height="10"/><rect width="10" y="40" x="240" height="10"/><rect width="10" y="30" x="240" height="10"/><rect width="10" y="20" x="240" height="10"/><rect width="10" y="0" x="240" height="10"/><rect width="10" y="270" x="250" height="10"/><rect width="10" y="260" x="250" height="10"/><rect width="10" y="250" x="250" height="10"/><rect width="10" y="240" x="250" height="10"/><rect width="10" y="190" x="250" height="10"/><rect width="10" y="180" x="250" height="10"/><rect width="10" y="170" x="250" height="10"/><rect width="10" y="150" x="250" height="10"/><rect width="10" y="140" x="250" height="10"/><rect width="10" y="120" x="250" height="10"/><rect width="10" y="110" x="250" height="10"/><rect width="10" y="90" x="250" height="10"/><rect width="10" y="80" x="250" height="10"/><rect width="10" y="60" x="250" height="10"/><rect width="10" y="40" x="250" height="10"/><rect width="10" y="30" x="250" height="10"/><rect width="10" y="20" x="250" height="10"/><rect width="10" y="0" x="250" height="10"/><rect width="10" y="280" x="260" height="10"/><rect width="10" y="230" x="260" height="10"/><rect width="10" y="200" x="260" height="10"/><rect width="10" y="140" x="260" height="10"/><rect width="10" y="130" x="260" height="10"/><rect width="10" y="120" x="260" height="10"/><rect width="10" y="110" x="260" height="10"/><rect width="10" y="100" x="260" height="10"/><rect width="10" y="80" x="260" height="10"/><rect width="10" y="60" x="260" height="10"/><rect width="10" y="40" x="260" height="10"/><rect width="10" y="30" x="260" height="10"/><rect width="10" y="20" x="260" height="10"/><rect width="10" y="0" x="260" height="10"/><rect width="10" y="270" x="270" height="10"/><rect width="10" y="240" x="270" height="10"/><rect width="10" y="220" x="270" height="10"/><rect width="10" y="210" x="270" height="10"/><rect width="10" y="200" x="270" height="10"/><rect width="10" y="170" x="270" height="10"/><rect width="10" y="160" x="270" height="10"/><rect width="10" y="150" x="270" height="10"/><rect width="10" y="130" x="270" height="10"/><rect width="10" y="60" x="270" height="10"/><rect width="10" y="0" x="270" height="10"/><rect width="10" y="270" x="280" height="10"/><rect width="10" y="230" x="280" height="10"/><rect width="10" y="210" x="280" height="10"/><rect width="10" y="200" x="280" height="10"/><rect width="10" y="180" x="280" height="10"/><rect width="10" y="170" x="280" height="10"/><rect width="10" y="160" x="280" height="10"/><rect width="10" y="150" x="280" height="10"/><rect width="10" y="130" x="280" height="10"/><rect width="10" y="90" x="280" height="10"/><rect width="10" y="60" x="280" height="10"/><rect width="10" y="50" x="280" height="10"/><rect width="10" y="40" x="280" height="10"/><rect width="10" y="30" x="280" height="10"/><rect width="10" y="20" x="280" height="10"/><rect width="10" y="10" x="280" height="10"/><rect width="10" y="0" x="280" height="10"/></g></svg>